<svg width="38" height="40" viewBox="0 0 38 40" fill="none" xmlns="http://www.w3.org/2000/svg">
<path d="M25.2882 24.3749H21.2928C21.2816 24.3749 21.2723 24.3721 21.2621 24.3684C21.2531 24.3653 21.2437 24.3635 21.2342 24.3628V31.4633C24.6184 31.7237 26.5523 33.0753 28.2677 34.2912C30.117 35.6046 31.7142 36.7377 35.0872 36.7377C35.3965 36.7377 35.6931 36.8605 35.9117 37.0792C36.1304 37.2979 36.2533 37.5945 36.2533 37.9037C36.2533 38.213 36.1304 38.5096 35.9117 38.7282C35.6931 38.9469 35.3965 39.0698 35.0872 39.0698C30.9709 39.0698 28.8175 37.5423 26.9179 36.1935C25.29 35.0381 23.8547 34.0223 21.2342 33.7907V37.9033C21.2342 38.2126 21.1113 38.5093 20.8925 38.7281C20.6738 38.9469 20.3771 39.0698 20.0677 39.0698C19.7583 39.0698 19.4616 38.9469 19.2428 38.7281C19.0241 38.5093 18.9012 38.2126 18.9012 37.9033V33.7916C16.2807 34.0223 14.8454 35.0381 13.2175 36.1935C11.3179 37.5423 9.16443 39.0698 5.04816 39.0698C4.7389 39.0698 4.44231 38.9469 4.22364 38.7282C4.00496 38.5096 3.88211 38.213 3.88211 37.9037C3.88211 37.5945 4.00496 37.2979 4.22364 37.0792C4.44231 36.8605 4.7389 36.7377 5.04816 36.7377C8.42118 36.7377 10.0184 35.6046 11.8668 34.2912C13.583 33.0753 15.517 31.7237 18.9012 31.4633V20.7005H14.1365C6.63513 20.7014 0.532806 14.6856 0.532806 7.29023V1.16651C0.532806 0.52186 1.05467 0 1.69839 0H7.82211C14.5058 0 19.8919 4.65767 21.01 10.973C23.1458 7.87721 26.7161 5.88093 30.8426 5.88093H36.2305C36.8751 5.88093 37.397 6.40186 37.397 7.04651V12.4344C37.397 19.0177 31.9644 24.3749 25.2882 24.3749ZM30.8435 8.21209C25.4556 8.21209 21.2342 12.4326 21.2342 17.8205V20.3935L27.3244 14.3023C27.4327 14.194 27.5612 14.1081 27.7026 14.0495C27.844 13.9909 27.9956 13.9607 28.1488 13.9606C28.3019 13.9606 28.4535 13.9907 28.595 14.0492C28.7364 14.1078 28.865 14.1936 28.9733 14.3019C29.0816 14.4101 29.1675 14.5386 29.2261 14.68C29.2847 14.8215 29.3149 14.9731 29.315 15.1262C29.315 15.2793 29.2849 15.4309 29.2264 15.5724C29.1678 15.7139 29.082 15.8424 28.9737 15.9507L22.8835 22.0419H25.2882C30.6789 22.0419 35.0649 17.7312 35.0649 12.4326V8.21395H30.8435V8.21209ZM2.8649 2.33209V7.2893C2.8649 13.3981 7.92071 18.3684 14.1356 18.3684H17.2519L10.0584 11.1749C9.94957 11.0668 9.86316 10.9383 9.80411 10.7967C9.74506 10.6551 9.71453 10.5033 9.71428 10.3499C9.71403 10.1965 9.74405 10.0446 9.80264 9.90282C9.86122 9.76106 9.94721 9.63226 10.0557 9.5238C10.1641 9.41533 10.2929 9.32934 10.4347 9.27076C10.5765 9.21218 10.7284 9.18215 10.8818 9.18241C11.0352 9.18266 11.187 9.21318 11.3286 9.27223C11.4701 9.33128 11.5987 9.41769 11.7068 9.52651L18.9012 16.72V13.4121C18.9012 7.19814 14.0351 2.33302 7.82211 2.33302L2.8649 2.33209Z" fill="white"/>
</svg>
